<svg width="17" height="17" viewBox="0 0 17 17" fill="none" xmlns="http://www.w3.org/2000/svg">
<g clip-path="url(#clip0)">
<path d="M16.7621 14.6069L12.6919 10.4021C12.4 10.1004 12.0352 9.97963 11.8772 10.1339C11.7186 10.287 11.3536 10.1665 11.0617 9.86486L11.0035 9.80449C12.8252 7.40858 12.6484 3.97819 10.4608 1.79063C8.0733 -0.596876 4.20225 -0.596876 1.81504 1.79063C-0.572462 4.17813 -0.572462 8.04863 1.81504 10.4361C4.03986 12.6613 7.55133 12.8103 9.95213 10.8885L9.97769 10.9151C10.269 11.2168 10.3775 11.5854 10.2184 11.7388C10.0601 11.8922 10.1678 12.2611 10.46 12.5622L14.528 16.7687C14.8199 17.0695 15.3008 17.0785 15.6027 16.7864L16.7444 15.6817C17.0452 15.3903 17.0534 14.9097 16.7621 14.6069ZM9.11734 9.09258C7.47436 10.7358 4.80074 10.7358 3.158 9.09313C1.51502 7.45014 1.51527 4.77622 3.158 3.13354C4.80074 1.49056 7.47436 1.49081 9.11679 3.13379C10.76 4.77652 10.76 7.44989 9.11734 9.09258Z" fill="#010002"/>
</g>
<defs>
<clipPath id="clip0">
<rect width="17" height="17" fill="white"/>
</clipPath>
</defs>
</svg>
