<svg width="17" height="17" viewBox="0 0 17 17" fill="none" xmlns="http://www.w3.org/2000/svg">
<path d="M11.6226 1.73438H9.54102V5.20376H11.6226V1.73438Z" fill="black"/>
<path d="M13.8478 0H0.173584V17H16.8266V2.97882L13.8478 0ZM3.64297 0.693878H12.6634V6.2449H3.64297V0.693878ZM13.7042 16.3061H2.94909V9.02041H13.7042V16.3061Z" fill="black"/>
<path d="M4.68385 11.1021H7.11242C7.30428 11.1021 7.45936 10.947 7.45936 10.7551C7.45936 10.5633 7.30428 10.4082 7.11242 10.4082H4.68385C4.492 10.4082 4.33691 10.5633 4.33691 10.7551C4.33691 10.947 4.492 11.1021 4.68385 11.1021Z" fill="black"/>
<path d="M4.68385 12.4898H8.15324C8.3451 12.4898 8.50018 12.3347 8.50018 12.1428C8.50018 11.951 8.3451 11.7959 8.15324 11.7959H4.68385C4.492 11.7959 4.33691 11.951 4.33691 12.1428C4.33691 12.3347 4.492 12.4898 4.68385 12.4898Z" fill="black"/>
<path d="M9.19411 12.4893C9.28778 12.4893 9.37452 12.4512 9.44043 12.3887C9.50288 12.3228 9.54105 12.2326 9.54105 12.1424C9.54105 12.0522 9.50288 11.9617 9.44043 11.8961C9.31207 11.7677 9.07962 11.7677 8.95125 11.8961C8.88533 11.9617 8.84717 12.0484 8.84717 12.1424C8.84717 12.2361 8.88498 12.3228 8.94778 12.3887C9.01335 12.4512 9.10009 12.4893 9.19411 12.4893Z" fill="black"/>
</svg>
