<svg width="20" height="20" viewBox="0 0 20 20" fill="none" xmlns="http://www.w3.org/2000/svg">
<path d="M19.82 9.43C19.737 9.311 17.758 6.486 15.027 4.555C13.612 3.552 11.826 3 9.99999 3C8.17499 3 6.38899 3.552 4.96999 4.555C2.23799 6.486 0.260988 9.311 0.178988 9.43C-0.0590117 9.773 -0.0590117 10.228 0.178988 10.571C0.261988 10.69 2.23899 13.515 4.96999 15.446C6.38899 16.448 8.17499 17 9.99999 17C11.826 17 13.612 16.448 15.028 15.445C17.759 13.514 19.738 10.689 19.821 10.57C20.059 10.228 20.059 9.772 19.82 9.43ZM9.99999 13.5C8.06599 13.5 6.49999 11.93 6.49999 10C6.49999 8.066 8.06599 6.5 9.99999 6.5C11.93 6.5 13.5 8.066 13.5 10C13.5 11.93 11.93 13.5 9.99999 13.5Z" fill="#030104"/>
<path d="M12 10C12 11.102 11.102 12 10 12C8.895 12 8 11.102 8 10C8 8.895 8.895 8 10 8C11.102 8 12 8.895 12 10Z" fill="#030104"/>
</svg>
