<svg width="20" height="20" viewBox="0 0 20 20" fill="none" xmlns="http://www.w3.org/2000/svg">
<path d="M14.5276 1.71558H10.763V0H5.65099V1.71558H1.88647V4.42438H14.5276V1.71558ZM7.00539 1.3544H9.40864V1.71558H7.00539V1.3544Z" fill="#4F4E4D"/>
<path d="M13.3246 9.67493L13.5802 5.77832H2.83374L3.69225 18.8709H8.84674C8.17582 17.9198 7.78119 16.7604 7.78119 15.5106C7.78119 12.3892 10.2414 9.83155 13.3246 9.67493Z" fill="#4F4E4D"/>
<path d="M13.6247 11.0215C11.1495 11.0215 9.13574 13.0352 9.13574 15.5104C9.13574 17.9855 11.1495 19.9993 13.6247 19.9993C16.0999 19.9993 18.1136 17.9856 18.1136 15.5104C18.1136 13.0352 16.0999 11.0215 13.6247 11.0215ZM16.0706 16.9985L15.1129 17.9562L13.6247 16.4681L12.1365 17.9562L11.1788 16.9985L12.667 15.5104L11.1788 14.0222L12.1365 13.0645L13.6247 14.5527L15.1129 13.0645L16.0706 14.0222L14.5824 15.5104L16.0706 16.9985Z" fill="#4F4E4D"/>
</svg>
