<svg width="17" height="17" viewBox="0 0 17 17" fill="none" xmlns="http://www.w3.org/2000/svg">
<g clip-path="url(#clip0)">
<path d="M16.8198 5.94755L11.9626 1.09045C11.8425 0.970264 11.7002 0.910156 11.5358 0.910156C11.3713 0.910156 11.229 0.970264 11.1089 1.09045C10.9887 1.2107 10.9285 1.35301 10.9285 1.51742V3.94597H8.80357C4.29409 3.94597 1.52732 5.22037 0.502629 7.76911C0.167532 8.61647 0 9.66961 0 10.9282C0 11.9779 0.401618 13.4041 1.20479 15.2066C1.22373 15.2509 1.25682 15.3267 1.30434 15.4342C1.35182 15.5416 1.39445 15.6364 1.43239 15.7187C1.47047 15.8009 1.51161 15.8704 1.55583 15.9273C1.63166 16.0348 1.72024 16.0887 1.82145 16.0887C1.91632 16.0887 1.99065 16.0571 2.04444 15.9939C2.0981 15.9307 2.12498 15.8516 2.12498 15.7569C2.12498 15.6998 2.11708 15.6162 2.10123 15.5054C2.08541 15.3947 2.07747 15.3205 2.07747 15.2825C2.0458 14.8526 2.02999 14.4634 2.02999 14.1158C2.02999 13.4771 2.08541 12.9047 2.19599 12.3988C2.30674 11.8928 2.46008 11.4549 2.65619 11.0849C2.85226 10.7147 3.10515 10.3956 3.41513 10.1268C3.72498 9.85794 4.05855 9.63825 4.41587 9.46746C4.77326 9.29663 5.19382 9.16223 5.67764 9.06424C6.16143 8.96622 6.64838 8.8982 7.13858 8.86023C7.62878 8.82225 8.18374 8.80337 8.80357 8.80337H10.9285V11.232C10.9285 11.3964 10.9886 11.5387 11.1087 11.6589C11.229 11.7789 11.3712 11.8391 11.5355 11.8391C11.7 11.8391 11.8423 11.7789 11.9626 11.6589L16.8197 6.80159C16.9399 6.68141 17 6.53916 17 6.37472C16.9999 6.21031 16.9399 6.06797 16.8198 5.94755Z" fill="black"/>
</g>
<defs>
<clipPath id="clip0">
<rect width="17" height="17" fill="white"/>
</clipPath>
</defs>
</svg>
