<svg width="30" height="30" viewBox="0 0 30 30" fill="none" xmlns="http://www.w3.org/2000/svg">
<g clip-path="url(#clip0)">
<path d="M9.04283 10.033C9.70497 9.19809 10.4995 8.54746 11.3632 8.07532C14.2335 6.50633 17.9069 6.91513 20.3569 9.30749L21.8078 7.85653C21.8884 7.77592 22.0324 7.8335 22.0496 7.94865L22.8413 13.1278C22.8529 13.2141 22.778 13.289 22.6945 13.2746L17.5183 12.4858C17.4002 12.4656 17.3455 12.3246 17.4262 12.244L18.8742 10.7959C17.2563 9.22976 14.9158 8.85262 12.9437 9.65583C12.1981 9.95811 11.5072 10.4245 10.9314 11.0636C10.1397 11.9417 9.68482 13.0241 9.55815 14.1411C9.49194 14.7371 8.94495 15.1574 8.3519 15.0653C7.78763 14.9789 7.39898 14.4578 7.4652 13.8907C7.61778 12.5117 8.14174 11.1701 9.04283 10.033ZM20.449 15.8656C20.3281 16.9826 19.8703 18.0679 19.0758 18.9431C18.4971 19.5851 17.8033 20.0486 17.0634 20.3509C15.0914 21.1541 12.748 20.7799 11.1329 19.2109L12.581 17.7628C12.6616 17.6822 12.604 17.5382 12.4889 17.521L7.30974 16.7293C7.22337 16.7177 7.14852 16.7926 7.16291 16.8761L7.95173 22.0523C7.97188 22.1704 8.11295 22.2251 8.19356 22.1444L9.64452 20.6935C12.0916 23.0887 15.7679 23.5004 18.6382 21.9257C19.5018 21.4535 20.2935 20.8 20.9585 19.968C21.8625 18.8337 22.3865 17.4922 22.5391 16.1132C22.6024 15.5432 22.2166 15.025 21.6524 14.9386C21.0622 14.8493 20.5152 15.2697 20.449 15.8656Z" fill="#4F4E4D"/>
</g>
<defs>
<clipPath id="clip0">
<rect width="20" height="20" fill="white" transform="translate(15 0.857422) rotate(45)"/>
</clipPath>
</defs>
</svg>
