<svg width="16" height="20" viewBox="0 0 16 20" fill="none" xmlns="http://www.w3.org/2000/svg">
<path d="M15.3846 11.7188H8.61539V8.20312H11.6923C12.0325 8.20312 12.3077 7.94105 12.3077 7.61719V2.92969C12.3077 2.60582 12.0325 2.34375 11.6923 2.34375H8.61539V0.585938C8.61539 0.26207 8.34014 0 8 0C7.65986 0 7.38462 0.26207 7.38462 0.585938V2.34375H4.30769C3.96755 2.34375 3.69231 2.60582 3.69231 2.92969V7.61719C3.69231 7.94105 3.96755 8.20312 4.30769 8.20312H7.38462V11.7188H0.615385C0.275241 11.7188 0 11.9808 0 12.3047V16.9922C0 17.3161 0.275241 17.5781 0.615385 17.5781H7.38462V19.4141C7.38462 19.7379 7.65986 20 8 20C8.34014 20 8.61539 19.7379 8.61539 19.4141V17.5781H15.3846C15.7248 17.5781 16 17.3161 16 16.9922V12.3047C16 11.9808 15.7248 11.7188 15.3846 11.7188Z" fill="#4F4E4D"/>
</svg>
