<svg width="12" height="12" viewBox="0 0 12 12" fill="none" xmlns="http://www.w3.org/2000/svg">
<path d="M6 0C2.66667 0 0 2.66667 0 6C0 9.33333 2.66667 12 6 12C6.53333 12 7 11.5333 7 11C7 10.7333 6.93333 10.5333 6.73333 10.3333C6.6 10.1333 6.46667 9.93333 6.46667 9.66667C6.46667 9.13333 6.93336 8.66667 7.46667 8.66667H8.66667C10.5333 8.66667 12 7.2 12 5.33333C12 2.4 9.33333 0 6 0ZM2.33333 6C1.8 6 1.33333 5.53333 1.33333 5C1.33333 4.46667 1.8 4 2.33333 4C2.86667 4 3.33333 4.46667 3.33333 5C3.33333 5.53333 2.86667 6 2.33333 6ZM4.33333 3.33333C3.8 3.33333 3.33333 2.86667 3.33333 2.33333C3.33333 1.8 3.8 1.33333 4.33333 1.33333C4.86667 1.33333 5.33333 1.8 5.33333 2.33333C5.33333 2.86667 4.86667 3.33333 4.33333 3.33333ZM7.66667 3.33333C7.13333 3.33333 6.66667 2.86667 6.66667 2.33333C6.66667 1.8 7.13333 1.33333 7.66667 1.33333C8.2 1.33333 8.66667 1.8 8.66667 2.33333C8.66667 2.86667 8.2 3.33333 7.66667 3.33333ZM9.66667 6C9.13333 6 8.66667 5.53333 8.66667 5C8.66667 4.46667 9.13333 4 9.66667 4C10.2 4 10.6667 4.46667 10.6667 5C10.6667 5.53333 10.2 6 9.66667 6Z" fill="black"/>
</svg>
