<svg width="14" height="10" viewBox="0 0 14 10" fill="none" xmlns="http://www.w3.org/2000/svg">
<mask id="path-1-inside-1" fill="white">
<path d="M0.0179319 4.40583C0.0231838 4.3872 0.0237684 4.36783 0.0304785 4.3507C0.103417 4.173 1.86825 0 7.14027 0C11.2502 0 13.776 4.02474 13.935 4.28513L13.9414 4.29519C13.9498 4.30935 13.9522 4.32611 13.9592 4.34101C13.9706 4.36709 13.9831 4.39167 13.9895 4.41999C13.9951 4.44308 13.9942 4.46618 13.9956 4.48965C13.9974 4.51386 14.0015 4.53733 13.9994 4.56155C13.9971 4.58986 13.9884 4.61593 13.9811 4.64313C13.9764 4.66026 13.9761 4.67852 13.9694 4.69528C13.8967 4.87297 12.1319 9.0456 6.85989 9.0456C2.74993 9.0456 0.223619 5.02049 0.065196 4.76047L0.0587788 4.75079C0.0503178 4.73663 0.0473995 4.7195 0.0409813 4.70422C0.029603 4.67889 0.0170574 4.6543 0.0106382 4.62599C0.00480366 4.60327 0.00597 4.58017 0.00451183 4.5567C0.00276089 4.53249 -0.00132275 4.50865 0.000427246 4.48406C0.00276184 4.45649 0.0112219 4.43153 0.0179319 4.40583Z"/>
</mask>
<path d="M0.0179319 4.40583L-1.91721 3.90064L-1.9123 3.88182L-1.90702 3.8631L0.0179319 4.40583ZM0.0304785 4.3507L-1.83182 3.62143L-1.82589 3.60628L-1.81972 3.59124L0.0304785 4.3507ZM13.935 4.28513L12.249 5.36105L12.2384 5.34435L12.228 5.32745L13.935 4.28513ZM13.9414 4.29519L15.6273 3.21927L15.6431 3.24397L15.6581 3.26911L13.9414 4.29519ZM13.9592 4.34101L15.7693 3.49042L15.7811 3.51562L15.7923 3.54115L13.9592 4.34101ZM13.9895 4.41999L12.0448 4.88675L12.0418 4.87449L12.039 4.86219L13.9895 4.41999ZM13.9956 4.48965L12.0009 4.63386L12.0001 4.6238L11.9995 4.61372L13.9956 4.48965ZM13.9994 4.56155L12.0062 4.39722L12.0065 4.39346L13.9994 4.56155ZM13.9811 4.64313L15.9128 5.16125L15.9107 5.1688L13.9811 4.64313ZM13.9694 4.69528L15.8262 5.43854L15.8234 5.44535L15.8207 5.45214L13.9694 4.69528ZM0.065196 4.76047L1.73237 3.65569L1.75337 3.68739L1.77316 3.71986L0.065196 4.76047ZM0.0587788 4.75079L-1.60839 5.85557L-1.63409 5.8168L-1.65795 5.77687L0.0587788 4.75079ZM0.0409813 4.70422L1.86538 3.88474L1.87535 3.90693L1.88478 3.92937L0.0409813 4.70422ZM0.0106382 4.62599L1.94779 4.12856L1.95486 4.15608L1.96114 4.18379L0.0106382 4.62599ZM0.00451183 4.5567L1.99931 4.41249L2.00003 4.42255L2.00066 4.43263L0.00451183 4.5567ZM0.000427246 4.48406L-1.99452 4.34202L-1.99357 4.32867L-1.99244 4.31533L0.000427246 4.48406ZM-1.90702 3.8631C-1.92705 3.93413 -1.93836 3.99054 -1.94334 4.01661C-1.94589 4.02998 -1.94762 4.03994 -1.94789 4.04149C-1.94952 4.05088 -1.94646 4.03325 -1.94599 4.03058C-1.94332 4.01547 -1.93414 3.96319 -1.9187 3.89863C-1.90267 3.83162 -1.87605 3.73437 -1.83182 3.62143L1.89278 5.07996C1.93365 4.97559 1.95768 4.88719 1.97155 4.82922C1.98483 4.77368 1.99228 4.73063 1.9933 4.72483C1.9937 4.72259 1.99396 4.72106 1.99382 4.72186C1.9938 4.72202 1.99377 4.72218 1.99371 4.72253C1.99366 4.72283 1.99358 4.72328 1.99349 4.72377C1.99333 4.72475 1.99307 4.72622 1.99277 4.72794C1.99168 4.73419 1.98912 4.74885 1.98566 4.76692C1.97889 4.8024 1.96554 4.86822 1.94288 4.94857L-1.90702 3.8631ZM-1.81972 3.59124C-1.67813 3.24631 0.572105 -2 7.14027 -2V2C5.09518 2 3.81535 2.78833 3.02112 3.55116C2.18764 4.35169 1.8598 5.161 1.88067 5.11016L-1.81972 3.59124ZM7.14027 -2C9.87331 -2 11.9879 -0.66249 13.3502 0.552095C14.7199 1.77327 15.5101 3.02707 15.6419 3.24282L12.228 5.32745C12.2008 5.2828 11.6487 4.39403 10.6883 3.53774C9.72044 2.67486 8.51719 2 7.14027 2V-2ZM15.6209 3.20922L15.6273 3.21927L12.2554 5.37111L12.249 5.36105L15.6209 3.20922ZM15.6581 3.26911C15.7282 3.38633 15.7744 3.4903 15.8037 3.56345C15.8317 3.63343 15.85 3.6906 15.8548 3.7054C15.8562 3.70992 15.8574 3.71377 15.8578 3.71477C15.8584 3.7167 15.8579 3.71519 15.8574 3.71361C15.8563 3.71026 15.8521 3.69708 15.8461 3.67978C15.8346 3.64615 15.8096 3.57616 15.7693 3.49042L12.1491 5.1916C12.1053 5.09842 12.0774 5.02074 12.0631 4.97933C12.0559 4.95814 12.0504 4.94105 12.048 4.93379C12.0469 4.93025 12.0458 4.92678 12.0458 4.92675C12.0455 4.92579 12.0461 4.92768 12.0469 4.93024C12.0491 4.93722 12.0648 4.98662 12.0898 5.04901C12.116 5.11457 12.1588 5.21113 12.2247 5.32127L15.6581 3.26911ZM15.7923 3.54115C15.7897 3.53531 15.7848 3.5244 15.7927 3.54199C15.7972 3.55204 15.8098 3.58008 15.824 3.61442C15.8531 3.68464 15.9026 3.81255 15.94 3.97778L12.039 4.86219C12.0701 4.99911 12.11 5.10057 12.1284 5.1449C12.1373 5.16629 12.1442 5.18153 12.1429 5.17875C12.1427 5.17835 12.1425 5.17783 12.1417 5.17594C12.141 5.17443 12.1397 5.17167 12.1384 5.16868C12.1357 5.16269 12.1313 5.15274 12.1261 5.14088L15.7923 3.54115ZM15.9343 3.95322C15.977 4.13129 15.9873 4.27708 15.9909 4.34163C15.9919 4.35885 15.9925 4.37324 15.9929 4.38264C15.9932 4.39109 15.9935 4.39954 15.9936 4.40018C15.9938 4.40739 15.9933 4.38904 15.9918 4.36557L11.9995 4.61372C11.9973 4.57852 11.9963 4.54848 11.9961 4.54405C11.9957 4.53177 11.9962 4.54864 11.9973 4.56773C11.9997 4.60908 12.0076 4.73178 12.0448 4.88675L15.9343 3.95322ZM15.9904 4.34544C15.9887 4.32169 15.9869 4.30377 15.9874 4.30907C15.9874 4.30944 15.9875 4.30986 15.9875 4.31069C15.9876 4.31141 15.9877 4.31251 15.9878 4.31369C15.9881 4.31604 15.9884 4.31965 15.9888 4.32386C15.9896 4.33212 15.9909 4.34522 15.9922 4.36095C15.997 4.41911 16.0069 4.55701 15.9924 4.72964L12.0065 4.39346C11.994 4.54187 12.0029 4.65592 12.0058 4.69024C12.007 4.70561 12.0086 4.72073 12.0072 4.70631C12.0065 4.69965 12.0034 4.66971 12.0009 4.63386L15.9904 4.34544ZM15.9927 4.72587C15.979 4.89161 15.9489 5.02244 15.9315 5.09153C15.9229 5.12563 15.9149 5.15383 15.9123 5.1631C15.9077 5.17951 15.9107 5.16897 15.9128 5.16124L12.0493 4.12501C12.0528 4.11222 12.0558 4.10147 12.0576 4.09473C12.0586 4.09133 12.0594 4.08829 12.06 4.08641C12.0606 4.08406 12.0608 4.08349 12.061 4.08267C12.0622 4.07852 12.058 4.09334 12.0528 4.11398C12.0421 4.15616 12.0175 4.25979 12.0062 4.39722L15.9927 4.72587ZM15.9107 5.1688C15.9311 5.09403 15.9422 5.03495 15.9466 5.01033C15.9478 5.00354 15.9488 4.99805 15.9494 4.99446C15.95 4.99097 15.9504 4.98848 15.9504 4.98818C15.9511 4.984 15.9492 4.99577 15.9477 5.00434C15.9444 5.02414 15.9347 5.08056 15.9178 5.15057C15.9004 5.22307 15.8722 5.32339 15.8262 5.43854L12.1126 3.95203C12.0699 4.05879 12.0443 4.15055 12.0289 4.21437C12.0142 4.27571 12.0061 4.32335 12.0042 4.33435C12.0035 4.33851 12.0023 4.34588 12.0037 4.3373C12.0045 4.33298 12.0067 4.31905 12.0098 4.30197C12.0158 4.26858 12.0287 4.20079 12.0514 4.11746L15.9107 5.1688ZM15.8207 5.45214C15.6782 5.80064 13.4277 11.0456 6.85989 11.0456V7.0456C8.90505 7.0456 10.1849 6.25731 10.979 5.4946C11.8128 4.69387 12.1401 3.8846 12.1181 3.93842L15.8207 5.45214ZM6.85989 11.0456C4.12683 11.0456 2.01209 9.70798 0.649764 8.49338C-0.719778 7.27235 -1.51023 6.01862 -1.64276 5.80108L1.77316 3.71986C1.79904 3.76235 2.35096 4.65118 3.31167 5.50771C4.2796 6.37067 5.48299 7.0456 6.85989 7.0456V11.0456ZM-1.60197 5.86526L-1.60839 5.85557L1.72595 3.646L1.73237 3.65569L-1.60197 5.86526ZM-1.65795 5.77687C-1.72465 5.66528 -1.7696 5.56606 -1.7987 5.49466C-1.82703 5.42516 -1.84565 5.36855 -1.85285 5.34643C-1.85488 5.34017 -1.85655 5.33496 -1.85759 5.33168C-1.85812 5.33001 -1.85857 5.32859 -1.85887 5.32767C-1.85901 5.3272 -1.85915 5.32678 -1.85924 5.3265C-1.85934 5.32615 -1.85938 5.32604 -1.85943 5.32589C-1.86011 5.32374 -1.85771 5.33137 -1.85448 5.34118C-1.84826 5.3601 -1.8307 5.41273 -1.80282 5.47907L1.88478 3.92937C1.91587 4.00335 1.9362 4.06385 1.94504 4.09072C1.94958 4.1045 1.95325 4.11614 1.95383 4.11798C1.95541 4.12295 1.95335 4.1164 1.95107 4.10942C1.94647 4.09526 1.93056 4.04654 1.90536 3.98471C1.87938 3.92099 1.83798 3.82922 1.77551 3.72471L-1.65795 5.77687ZM-1.78342 5.52371C-1.78168 5.52759 -1.7806 5.52993 -1.78148 5.52801C-1.78231 5.52619 -1.78198 5.52692 -1.78348 5.52365C-1.78443 5.52157 -1.78586 5.51846 -1.78747 5.51493C-1.79335 5.50202 -1.80671 5.4726 -1.8219 5.43618C-1.85274 5.36225 -1.90237 5.23358 -1.93986 5.06819L1.96114 4.18379C1.93006 4.04671 1.88992 3.94449 1.8698 3.89627C1.85997 3.8727 1.85228 3.85594 1.85215 3.85566C1.84674 3.8438 1.86028 3.87337 1.86538 3.88474L-1.78342 5.52371ZM-1.92652 5.12342C-1.97683 4.9275 -1.98755 4.76665 -1.99119 4.69885C-1.99217 4.68051 -1.99277 4.66528 -1.99313 4.65564C-1.9933 4.65073 -1.99344 4.64655 -1.99353 4.6438C-1.99358 4.64241 -1.99362 4.64116 -1.99365 4.64031C-1.99368 4.63923 -1.99369 4.63896 -1.99371 4.63843C-1.99391 4.63206 -1.99334 4.65337 -1.99164 4.68078L2.00066 4.43263C2.00309 4.47177 2.00406 4.50477 2.00423 4.51004C2.00469 4.52413 2.00417 4.50507 2.00306 4.4844C2.00066 4.43969 1.99227 4.30176 1.94779 4.12856L-1.92652 5.12342ZM-1.99028 4.70091C-1.98858 4.72442 -1.98675 4.74198 -1.98721 4.73736C-1.98739 4.73553 -1.98726 4.73687 -1.98762 4.73328C-1.98783 4.73115 -1.98817 4.72779 -1.98855 4.7239C-1.9893 4.71624 -1.99047 4.70397 -1.99171 4.68924C-1.9963 4.63505 -2.00612 4.50496 -1.99452 4.34202L1.99538 4.6261C2.00523 4.48775 1.99657 4.38187 1.99403 4.3518C1.99291 4.33866 1.99148 4.32472 1.99299 4.33982C1.99373 4.34726 1.99673 4.37688 1.99931 4.41249L-1.99028 4.70091ZM-1.99244 4.31533C-1.97859 4.15175 -1.94879 4.02293 -1.932 3.95619C-1.92384 3.92376 -1.91623 3.89652 -1.91437 3.88984C-1.91067 3.8765 -1.91399 3.88831 -1.91721 3.90064L1.95308 4.91102C1.94933 4.92535 1.94606 4.93738 1.94389 4.94527C1.94204 4.95202 1.93985 4.95988 1.93976 4.9602C1.93807 4.9663 1.94216 4.95184 1.94708 4.9323C1.95738 4.89136 1.98178 4.7888 1.9933 4.65279L-1.99244 4.31533Z" fill="#929292" mask="url(#path-1-inside-1)"/>
</svg>
