<svg width="5" height="3" viewBox="0 0 5 3" fill="none" xmlns="http://www.w3.org/2000/svg">
<path d="M4.9936 1.46121C4.99172 1.45503 4.99151 1.4486 4.98912 1.44292C4.96307 1.38399 4.33277 0 2.4499 0C0.982061 0 0.0800155 1.33482 0.0232274 1.42118L0.020935 1.42451C0.0179133 1.42921 0.0170797 1.43477 0.0145789 1.43971C0.0105152 1.44836 0.00603463 1.45651 0.00374227 1.4659C0.0017625 1.47356 0.00207509 1.48122 0.0015541 1.489C0.000928911 1.49704 -0.000529867 1.50482 0.000199522 1.51285C0.00103311 1.52224 0.00415906 1.53089 0.00676402 1.53991C0.0084312 1.54559 0.00853539 1.55164 0.010932 1.5572C0.0368774 1.61614 0.667174 3 2.55004 3C4.01788 3 4.92014 1.66506 4.97672 1.57882L4.97901 1.57561C4.98203 1.57092 4.98307 1.56523 4.98536 1.56017C4.98943 1.55177 4.99391 1.54361 4.9962 1.53422C4.99828 1.52669 4.99787 1.51903 4.99839 1.51124C4.99901 1.50321 5.00047 1.49531 4.99985 1.48715C4.99901 1.47801 4.99599 1.46973 4.9936 1.46121Z" fill="black"/>
</svg>
