<svg width="14" height="10" viewBox="0 0 14 10" fill="none" xmlns="http://www.w3.org/2000/svg">
<path d="M0.0179319 4.40583C0.0231838 4.3872 0.0237684 4.36783 0.0304785 4.3507C0.103417 4.173 1.86825 0 7.14027 0C11.2502 0 13.776 4.02474 13.935 4.28513L13.9414 4.29519C13.9498 4.30935 13.9522 4.32611 13.9592 4.34101C13.9706 4.36709 13.9831 4.39167 13.9895 4.41999C13.9951 4.44308 13.9942 4.46618 13.9956 4.48965C13.9974 4.51386 14.0015 4.53733 13.9994 4.56155C13.9971 4.58986 13.9884 4.61593 13.9811 4.64313C13.9764 4.66026 13.9761 4.67852 13.9694 4.69528C13.8967 4.87297 12.1319 9.0456 6.85989 9.0456C2.74993 9.0456 0.223619 5.02049 0.065196 4.76047L0.0587788 4.75079C0.0503178 4.73663 0.0473995 4.7195 0.0409813 4.70422C0.029603 4.67889 0.0170574 4.6543 0.0106382 4.62599C0.00480366 4.60327 0.00597 4.58017 0.00451183 4.5567C0.00276089 4.53249 -0.00132275 4.50865 0.000427246 4.48406C0.00276184 4.45649 0.0112219 4.43153 0.0179319 4.40583Z" fill="#DF6501"/>
</svg>
