<svg width="25" height="22" viewBox="0 0 25 22" fill="none" xmlns="http://www.w3.org/2000/svg">
<path d="M6.66303 0.314453C5.0558 0.314453 3.44518 0.937147 2.23109 2.18426C-0.197112 4.67834 -0.194086 8.6754 2.23109 11.1713L11.6875 20.9062C11.7614 20.9825 11.8504 21.0433 11.9491 21.0848C12.0478 21.1264 12.1541 21.1478 12.2616 21.1478C12.3691 21.1478 12.4754 21.1264 12.5741 21.0848C12.6728 21.0433 12.7618 20.9825 12.8357 20.9062C15.9906 17.6655 19.1494 14.4242 22.3045 11.1834C24.7326 8.68926 24.7326 4.69054 22.3045 2.1963C19.8763 -0.29793 15.8688 -0.297969 13.4406 2.1963L12.2678 3.39058L11.095 2.18426C9.88087 0.937147 8.27026 0.314453 6.66303 0.314453ZM6.66303 1.82237C7.84376 1.82237 9.02466 2.29853 9.94686 3.24582L11.6999 5.04321C11.7737 5.11949 11.8627 5.18027 11.9614 5.2218C12.0601 5.26333 12.1665 5.28475 12.2739 5.28475C12.3814 5.28475 12.4877 5.26333 12.5864 5.2218C12.6852 5.18027 12.7741 5.11949 12.848 5.04321L14.5887 3.25786C16.4331 1.36327 19.312 1.36331 21.1563 3.25786C23.0007 5.15241 23.0007 8.22739 21.1563 10.1218C18.19 13.1689 15.2218 16.2066 12.2554 19.2536L3.37919 10.1097C1.53593 8.21272 1.53484 5.14022 3.37919 3.24582C4.30138 2.29853 5.48229 1.82237 6.66303 1.82237Z" fill="black"/>
</svg>
