<svg width="12" height="12" viewBox="0 0 12 12" fill="none" xmlns="http://www.w3.org/2000/svg">
<g clip-path="url(#clip0)">
<path d="M5.98008 10.983H1.49501C1.21992 10.983 0.99668 10.7597 0.99668 10.4847V1.51456C0.99668 1.23948 1.21995 1.01623 1.49501 1.01623H5.98008C6.25566 1.01623 6.47841 0.793484 6.47841 0.517906C6.47841 0.242328 6.25566 0.0195312 5.98008 0.0195312H1.49501C0.670758 0.0195312 0 0.690313 0 1.51456V10.4847C0 11.3089 0.670758 11.9797 1.49501 11.9797H5.98008C6.25566 11.9797 6.47841 11.7569 6.47841 11.4813C6.47841 11.2058 6.25566 10.983 5.98008 10.983Z" fill="black"/>
<path d="M11.8511 5.64523L8.8212 2.65519C8.62585 2.46183 8.30991 2.46434 8.11655 2.66018C7.9232 2.85602 7.92519 3.17147 8.12155 3.36483L10.2868 5.5017H4.48466C4.20908 5.5017 3.98633 5.72445 3.98633 6.00002C3.98633 6.2756 4.20908 6.49837 4.48466 6.49837H10.2868L8.12155 8.63524C7.92521 8.8286 7.92371 9.14405 8.11655 9.33989C8.21422 9.43856 8.3428 9.48839 8.47137 9.48839C8.59796 9.48839 8.72452 9.44055 8.8212 9.34486L11.8511 6.35482C11.9458 6.26114 11.9996 6.13355 11.9996 6C11.9996 5.8665 11.9463 5.73942 11.8511 5.64523Z" fill="black"/>
</g>
<defs>
<clipPath id="clip0">
<rect width="12" height="12" fill="white"/>
</clipPath>
</defs>
</svg>
