<svg width="24" height="25" viewBox="0 0 24 25" fill="none" xmlns="http://www.w3.org/2000/svg">
<path d="M18.9227 24.9999H5.62009C4.36774 24.9999 3.34896 23.9911 3.34896 22.7522L1.46509 13.9913C0.753761 13.642 0.285461 12.9282 0.285461 12.1329C0.285461 10.9695 1.2411 10.0244 2.41479 10.0244H21.8694C23.0431 10.0244 24 10.9695 24 12.1329C24 12.8138 23.6675 13.4368 23.1135 13.8297L21.1783 22.8937C21.1938 23.991 20.1751 24.9999 18.9227 24.9999ZM2.41479 11.4073C2.01084 11.4073 1.68199 11.7329 1.68199 12.1329C1.68199 12.4479 1.91198 12.7276 2.24199 12.8102C2.49933 12.8751 2.69719 13.0804 2.7508 13.3377L4.73002 22.6094C4.74548 23.2289 5.13754 23.6159 5.61894 23.6159H18.9215C19.4042 23.6159 19.7949 23.2289 19.7949 22.751L21.8075 13.2504C21.8516 13.0416 21.9898 12.8646 22.1817 12.7714C22.4402 12.6475 22.6011 12.4009 22.6011 12.1319C22.6011 11.7319 22.2722 11.4062 21.8683 11.4062H2.41479V11.4073Z" fill="black"/>
<path d="M7.41348 20.9433C7.41348 21.2111 7.19186 21.4306 6.92135 21.4306H6.7867C6.51618 21.4306 6.29578 21.2111 6.29578 20.9433V15.2478C6.29578 14.98 6.5174 14.7617 6.7867 14.7617H6.92256C7.19307 14.7617 7.4147 14.9812 7.4147 15.2478V20.9433H7.41348Z" fill="black"/>
<path d="M11.012 20.9433C11.012 21.2111 10.7904 21.4306 10.5211 21.4306H10.384C10.1135 21.4306 9.89191 21.2111 9.89191 20.9433V15.2478C9.89191 14.98 10.1135 14.7617 10.384 14.7617H10.5199C10.7904 14.7617 11.0108 14.9812 11.0108 15.2478V20.9433H11.012Z" fill="black"/>
<path d="M14.6092 20.9433C14.6092 21.2111 14.3876 21.4306 14.1183 21.4306H13.9824C13.7119 21.4306 13.4903 21.2111 13.4903 20.9433V15.2478C13.4903 14.98 13.7119 14.7617 13.9824 14.7617H14.1183C14.3888 14.7617 14.6092 14.9812 14.6092 15.2478V20.9433Z" fill="black"/>
<path d="M18.2077 20.9433C18.2077 21.2111 17.9861 21.4306 17.7156 21.4306H17.5797C17.3092 21.4306 17.0888 21.2111 17.0888 20.9433V15.2478C17.0888 14.98 17.3104 14.7617 17.5797 14.7617H17.7156C17.9861 14.7617 18.2077 14.9812 18.2077 15.2478V20.9433Z" fill="black"/>
<path d="M12.157 0C7.63621 0 3.97092 3.62939 3.97092 8.10599H5.45205C5.45205 4.43881 8.45362 1.46665 12.1569 1.46665C15.8603 1.46665 18.8618 4.43888 18.8618 8.10599H20.343C20.3418 3.62939 16.6777 0 12.157 0Z" fill="black"/>
</svg>
