<svg width="17" height="17" viewBox="0 0 17 17" fill="none" xmlns="http://www.w3.org/2000/svg">
<path d="M0.196154 9.15422C0.0653846 9.02345 0 8.8273 0 8.69653C0 8.56576 0.0653846 8.36961 0.196154 8.23884L1.11154 7.32345C1.37308 7.06191 1.76538 7.06191 2.02692 7.32345L2.09231 7.38884L5.68846 11.2465C5.81923 11.3773 6.01538 11.3773 6.14615 11.2465L14.9077 2.15807H14.9731C15.2346 1.89653 15.6269 1.89653 15.8885 2.15807L16.8038 3.07345C17.0654 3.33499 17.0654 3.7273 16.8038 3.98884L6.34231 14.8427C6.21154 14.9735 6.08077 15.0388 5.88462 15.0388C5.68846 15.0388 5.55769 14.9735 5.42692 14.8427L0.326923 9.35038L0.196154 9.15422Z" fill="black"/>
</svg>
