<svg width="20" height="20" viewBox="0 0 20 20" fill="none" xmlns="http://www.w3.org/2000/svg">
<g clip-path="url(#clip0)">
<path d="M11.8321 4.13785C11.5083 4.13785 11.2459 3.87539 11.2459 3.55164V0H2.83694C2.51319 0 2.25073 0.262461 2.25073 0.586211V16.8286L14.8852 16.8255V4.13785H11.8321Z" fill="#4F4E4D"/>
<path d="M12.4182 0.353516V2.96547H14.8803L12.4182 0.353516Z" fill="#4F4E4D"/>
<path d="M17.1631 2.96582H16.0576V17.412C16.0576 17.7357 15.7952 17.9981 15.4715 17.9982L4.34448 18.0018V19.4142C4.34448 19.7379 4.60694 20.0004 4.93069 20.0004H17.1631C17.4868 20.0004 17.7493 19.7379 17.7493 19.4142V3.55203C17.7493 3.22828 17.4868 2.96582 17.1631 2.96582Z" fill="#4F4E4D"/>
</g>
<defs>
<clipPath id="clip0">
<rect width="20" height="20" fill="white"/>
</clipPath>
</defs>
</svg>
