<svg width="20" height="16" viewBox="0 0 20 16" fill="none" xmlns="http://www.w3.org/2000/svg">
<path d="M8.28125 15.3846L8.28125 8.61538L11.7969 8.61538L11.7969 11.6923C11.7969 12.0325 12.0589 12.3077 12.3828 12.3077L17.0703 12.3077C17.3942 12.3077 17.6562 12.0325 17.6562 11.6923L17.6562 8.61538L19.4141 8.61539C19.7379 8.61539 20 8.34014 20 8C20 7.65986 19.7379 7.38462 19.4141 7.38462L17.6562 7.38462L17.6562 4.30769C17.6562 3.96755 17.3942 3.69231 17.0703 3.69231L12.3828 3.69231C12.0589 3.69231 11.7969 3.96755 11.7969 4.30769L11.7969 7.38462L8.28125 7.38461L8.28125 0.615384C8.28125 0.275241 8.01918 -5.23698e-07 7.69531 -5.37855e-07L3.00781 -7.42752e-07C2.68394 -7.56909e-07 2.42187 0.27524 2.42187 0.615384L2.42187 7.38461L0.585937 7.38461C0.262069 7.38461 -3.34823e-07 7.65986 -3.49691e-07 8C-3.64559e-07 8.34014 0.262069 8.61538 0.585937 8.61538L2.42187 8.61538L2.42187 15.3846C2.42187 15.7248 2.68394 16 3.00781 16L7.69531 16C8.01918 16 8.28125 15.7248 8.28125 15.3846Z" fill="#4F4E4D"/>
</svg>
