<svg width="180" height="56" viewBox="0 0 180 56" fill="none" xmlns="http://www.w3.org/2000/svg">
<path fill-rule="evenodd" clip-rule="evenodd" d="M6.37918 36.6192C7.01899 37.2226 7.55252 38.0769 8.11744 38.66C10.2741 36.6155 11.6945 35.5132 14.8583 34.9671C13.5653 37.2813 11.8149 39.3147 9.71106 40.9465C10.6644 41.8739 10.9578 42.1836 11.5747 42.8429C14.1303 40.5777 16.1887 37.8181 17.6225 34.7347C18.5965 34.737 19.5677 34.8367 20.5214 35.0323C19.9757 37.6855 19.8295 40.4039 20.0875 43.0993C20.6941 48.2194 22.0401 49.6369 21.8801 54.3961H3.83263V56H47.9316V54.3961H29.6529C29.8881 51.6359 29.5028 48.8584 28.5246 46.2628C27.6284 43.7336 27.2266 41.059 27.3404 38.3813C29.1344 39.9576 30.7233 42.3275 31.7492 45.0897C32.3178 44.912 33.4631 44.6191 34.1268 44.4071C33.3535 42.3826 33.0575 40.2103 33.2614 38.0556C34.6739 39.6904 35.7869 41.5566 36.5502 43.57C37.7306 42.948 38.1166 42.7638 38.938 42.3788C37.7002 39.6855 35.9625 37.2458 33.8151 35.1859C34.1177 34.1447 34.5362 33.1399 35.0628 32.19C40.987 35.4446 44.5136 35.1294 47.9746 35.2984C48.0017 34.7533 48.0106 33.7809 47.9839 32.8799C45.7805 32.7999 41.3197 33.1219 36.304 30.3264C36.8779 29.5835 37.5208 28.8952 38.2243 28.2707C41.2233 29.5713 44.4986 30.1262 47.7644 29.8872C47.8047 28.7798 47.8052 28.4216 47.7986 27.6728C45.3158 27.8527 42.8231 27.4974 40.4928 26.6316C42.6449 25.2927 45.1352 24.5808 47.6778 24.5778C47.5978 23.6222 47.6366 22.979 47.6208 22.0002C45.2381 22.1742 43.279 21.5975 41.1382 20.578C43.2269 19.8877 45.4021 19.4858 47.602 19.3836C47.3989 18.0763 47.3512 17.6552 47.2552 16.7615C44.2622 17.0374 41.3395 17.8199 38.6146 19.075C37.8652 18.5291 37.1709 17.9129 36.5413 17.235C39.5469 14.0668 41.6633 10.1771 42.6808 5.95122C41.624 5.58474 41.2772 5.47778 40.5541 5.2612C39.63 9.02854 37.7258 12.4915 35.0305 15.3067C34.4784 14.4784 34.0127 13.597 33.6405 12.6758C35.6964 10.3186 37.1633 7.51659 37.9229 4.4958C36.8721 4.11258 36.5272 4.00061 35.807 3.77295C35.2482 5.99111 34.2417 8.07471 32.8481 9.89864C32.4607 7.52692 32.6208 5.09927 33.3166 2.79741C32.5823 2.69193 31.2405 2.50309 30.5281 2.33973C29.8913 4.6191 28.6666 6.6958 26.9739 8.3664C26.7654 5.9691 27.0045 3.55432 27.6792 1.24252C26.3576 1.04172 25.9363 0.960692 25.0457 0.78304C24.3614 3.87708 24.2851 7.07236 24.8211 10.1949C24.052 10.7382 23.2311 11.2062 22.3701 11.592C20.2862 7.68154 17.1883 4.38922 13.3939 2.0524C12.7064 2.92655 12.4939 3.21767 12.0563 3.82705C15.4432 5.9344 18.2015 8.89569 20.0473 12.4064C19.0945 12.6618 18.1184 12.8229 17.1334 12.8873C15.4728 10.1149 13.1544 7.78416 10.3784 6.09652C9.69048 6.9707 9.47791 7.2613 9.04079 7.8717C11.1018 9.12651 12.8714 10.7979 14.2335 12.7762C11.7736 12.4008 9.43572 11.4648 7.40466 10.0421L5.93405 12.1223C7.97089 13.3241 9.67028 15.2788 10.7978 17.3183C8.414 16.7676 6.1538 15.7856 4.1313 14.4218C3.52569 15.6014 3.31595 15.9711 2.8676 16.7528C5.65566 18.3776 8.73623 19.4519 11.9383 19.9159C12.2418 20.8238 12.4523 21.7596 12.5669 22.7091C8.21151 23.2224 3.55516 25.0133 0 28.4355C0.623477 29.0889 0.915965 29.399 1.78744 30.4023C4.64435 27.3823 8.50126 25.4749 12.6586 25.0258C12.6231 26.1172 12.4636 27.2012 12.1831 28.2573C8.85642 28.9569 5.76442 30.4819 3.19805 32.6888C3.83597 33.5996 4.05266 33.8869 4.51131 34.482C6.43399 32.8328 8.70267 31.6258 11.1539 30.9479C9.96339 33.136 8.33955 35.0647 6.37918 36.6191L6.37918 36.6192ZM37.8911 35.5751C41.2973 35.3535 42.9936 36.967 42.9799 40.4157C39.6798 40.8558 37.9835 39.2423 37.8911 35.5751ZM40.4792 15.6186C41.215 12.3227 43.2554 11.1625 46.6005 12.138C46.1072 15.3941 44.0668 16.5543 40.4792 15.6186ZM20.1273 0C23.0632 1.72146 23.54 4.00074 21.5576 6.83786C18.5833 5.35661 18.1065 3.07733 20.1273 0ZM0.0903359 21.8007C2.39536 19.311 4.74922 19.3159 7.15191 21.8155C5.07664 24.3909 2.72278 24.3859 0.0903359 21.8007ZM15.325 46.9959C13.5287 44.1253 14.1736 41.8869 17.2597 40.2806C19.2016 42.9554 18.5567 45.1939 15.325 46.9959ZM24.3212 54.3961C24.6119 50.667 22.8091 48.1588 22.3579 42.8749C22.1897 40.4693 22.3274 38.0523 22.7679 35.6806C23.7115 36.0269 24.6169 36.4672 25.4703 36.9949C25.0509 40.151 25.0509 42.7985 26.4489 47.131C27.3438 49.9044 27.3915 53.1304 27.4514 54.3961L24.3212 54.3961ZM31.9435 33.5181C30.9966 32.7524 29.9974 32.0522 28.9528 31.4227C29.2882 30.6588 29.6697 29.9155 30.0952 29.1968C31.1712 29.8298 32.2028 30.4721 33.1655 31.0742L33.1659 31.0747C32.6923 31.8552 32.2835 32.6723 31.9435 33.5181ZM27.1182 30.4147C26.239 29.9769 25.335 29.5895 24.4107 29.2546L24.4112 29.2527C24.841 28.452 25.3235 27.68 25.8554 26.9417C26.6567 27.3118 27.451 27.7172 28.2311 28.1403C27.814 28.8755 27.4424 29.6351 27.1182 30.4147H27.1182ZM22.1777 28.5623C21.3658 28.3525 20.5431 28.186 19.7131 28.0634C19.8792 27.0856 19.9867 26.099 20.0351 25.1086L20.0665 25.1114C20.9714 25.2374 21.8637 25.4404 22.7333 25.7181C22.6225 26.6781 22.437 27.6282 22.1786 28.56L22.1782 28.5609V28.5613L22.1777 28.5623L22.1777 28.5623ZM17.3492 27.8399C16.3591 27.7982 15.3672 27.8252 14.3809 27.9209C14.5962 26.9206 14.7302 25.9048 14.7815 24.8833C15.7335 24.8582 16.6868 24.8805 17.6365 24.9309C17.6045 25.9057 17.5085 26.8774 17.3492 27.8399H17.3492ZM13.6621 30.4272C14.7056 30.2855 15.7588 30.2262 16.8118 30.25C16.6004 31.0015 16.3485 31.7413 16.0574 32.4663C14.8502 32.529 13.6538 32.725 12.4906 33.0507C12.9449 32.2055 13.3365 31.3287 13.6621 30.4273L13.6621 30.4272ZM19.1945 30.4361C19.9694 30.54 20.738 30.6847 21.4972 30.8696C21.3072 31.5532 21.1317 32.2339 20.9707 32.9119C20.172 32.7209 19.3603 32.5876 18.5421 32.513C18.7888 31.829 19.0062 31.1367 19.1945 30.4361ZM23.717 31.5319C24.6102 31.8491 25.4824 32.2211 26.3286 32.6458C26.1178 33.3614 25.9433 34.087 25.8058 34.8199C24.9657 34.3487 24.091 33.9405 23.1891 33.5986C23.366 32.8262 23.549 32.1293 23.717 31.5319H23.717ZM28.123 33.6468C29.207 34.3176 30.2302 35.08 31.181 35.9255C30.96 36.8635 30.8259 37.8195 30.7804 38.7817C29.8189 37.7227 28.7441 36.7698 27.5749 35.9398C27.6021 35.7764 27.6311 35.6159 27.662 35.4604C27.7848 34.8486 27.9387 34.2433 28.123 33.6468V33.6468ZM34.4933 29.1912C33.444 28.4567 32.45 27.7998 31.5115 27.2202C32.0785 26.5327 32.6873 25.8799 33.3345 25.2655C34.2497 26.0183 35.2276 26.6935 36.2577 27.2837C35.6265 27.8792 35.037 28.5166 34.4933 29.1912ZM38.2566 25.6334C37.1901 25.0695 36.1781 24.4102 35.2332 23.6638C36.221 22.9255 37.2738 22.2761 38.3788 21.7235C39.5007 22.4675 40.7122 23.0699 41.9853 23.5167C40.6689 24.0873 39.4187 24.797 38.2566 25.6334V25.6334ZM29.5818 26.086C28.8503 25.6797 28.1511 25.3201 27.4794 25.0008C28.3995 24.0661 29.3855 23.1969 30.4299 22.4C30.8259 22.867 31.2391 23.3171 31.6696 23.7504C30.9139 24.4746 30.2158 25.2554 29.5818 26.086H29.5818ZM33.5183 22.1533C33.1135 21.7558 32.7238 21.3424 32.3492 20.9131C33.128 20.306 33.9443 19.653 34.8021 18.9047L34.972 18.7552C35.4224 19.2687 35.9042 19.7546 36.4144 20.2102C35.405 20.7913 34.4373 21.4405 33.5183 22.1533H33.5183ZM14.7492 22.537C14.6836 21.7388 14.5601 20.9464 14.3795 20.1658C15.3433 20.2192 16.3094 20.2202 17.2733 20.169C17.4221 20.956 17.5267 21.7506 17.5865 22.5491C16.657 22.5041 15.7082 22.4976 14.7492 22.537V22.537ZM20.0346 22.7545C19.9884 21.8066 19.8831 20.8625 19.7192 19.9275C20.6547 19.7903 21.5817 19.6016 22.4959 19.3624C22.7367 20.6577 22.8614 21.9715 22.8685 23.2886C21.9386 23.0468 20.993 22.8685 20.0384 22.7549L20.0346 22.7545V22.7545ZM25.2807 23.6379C25.3201 21.9549 25.1794 20.2724 24.8609 18.6187C25.674 18.3167 26.4694 17.9701 27.2435 17.5807C27.7373 18.5576 28.2948 19.5016 28.9125 20.4069C27.6126 21.3815 26.3977 22.4623 25.2807 23.6379ZM30.8253 18.9519C30.2615 18.1369 29.7523 17.2862 29.301 16.4053C30.2878 15.7699 31.2188 15.0536 32.0843 14.2641C32.4875 15.1441 32.9575 15.9928 33.4903 16.8028L33.253 17.0115C32.4756 17.6853 31.6565 18.3206 30.8253 18.9519V18.9519ZM31.1581 11.8192C30.2812 12.683 29.3237 13.463 28.2985 14.1488C27.9282 13.1751 27.6285 12.1765 27.4018 11.1606C28.5435 10.2621 29.5553 9.21335 30.4093 8.04345C30.5341 9.32313 30.7849 10.5877 31.1581 11.8192H31.1581ZM26.2509 15.3594C25.613 15.6898 24.9579 15.9892 24.2857 16.2577C24.0133 15.3399 23.6883 14.4381 23.3122 13.5569C24.0077 13.2703 24.6832 12.9382 25.3341 12.5628C25.5865 13.5113 25.8925 14.4449 26.2509 15.3594H26.2509ZM13.6396 17.7848C13.1889 16.638 12.6065 15.5463 11.9037 14.531C13.0944 14.7806 14.3057 14.9219 15.5225 14.9531C15.9937 15.8923 16.3872 16.8678 16.6991 17.87C15.6785 17.911 14.6562 17.8825 13.6396 17.7848H13.6396ZM19.1866 17.6344C18.911 16.6815 18.5668 15.7495 18.1564 14.8453C19.1067 14.7432 20.048 14.5716 20.9726 14.332C21.3509 15.2173 21.6757 16.1241 21.9451 17.0476C21.0387 17.2992 20.1174 17.4952 19.1866 17.6344H19.1866Z" fill="url(#paint0_linear)"/>
<path fill-rule="evenodd" clip-rule="evenodd" d="M62.3853 38H60V32.0946H61.9049L71.2363 10H72.059L81.915 32.0946H83.7536V38H81.3683V34.3685H62.3853V38ZM64.5884 32.0946H79.099L71.6615 15.091L64.5884 32.0946ZM101.654 28.3952L103.565 29.4246C103.021 30.5593 102.284 31.5858 101.389 32.4566C100.581 33.2137 99.6406 33.8085 98.6176 34.2102C97.4998 34.6262 96.3172 34.8293 95.128 34.8097C92.2458 34.8097 89.9949 33.8481 88.3752 31.9248C86.8024 30.1375 85.9345 27.8149 85.9402 25.4085C85.919 23.1923 86.6489 21.0373 88.0052 19.3107C89.7445 17.0424 92.0765 15.9073 95.001 15.9055C98.0103 15.9055 100.414 17.0688 102.212 19.3956C103.488 21.036 104.137 23.0855 104.161 25.5443H88.2593C88.3034 27.6315 88.9586 29.3397 90.2249 30.6691C90.8293 31.3191 91.5593 31.8328 92.3683 32.1776C93.1774 32.5223 94.0477 32.6906 94.9237 32.6715C95.8202 32.6723 96.7099 32.5115 97.552 32.1964C98.3441 31.9146 99.0795 31.4871 99.7219 30.935C100.488 30.1936 101.14 29.3372 101.654 28.3952ZM101.677 23.5419C101.447 22.468 100.995 21.4572 100.351 20.5778C99.7276 19.8069 98.9375 19.195 98.0434 18.7903C97.101 18.3409 96.0737 18.1092 95.0342 18.1116C93.3847 18.0767 91.784 18.6854 90.5562 19.8142C89.6396 20.6457 88.9549 21.8845 88.4856 23.5419H101.677ZM123.249 34.3685H120.88L114.939 21.2283L109.092 34.3685H106.668L114.702 16.3467H115.105L123.249 34.3685ZM128.925 23.4739H131.084C132.439 23.4329 133.794 23.5717 135.115 23.8868C136.129 24.1934 137.013 24.8385 137.627 25.7196C138.386 26.7605 138.756 28.0452 138.67 29.3412C138.583 30.6371 138.047 31.8587 137.158 32.7846C136.147 33.8425 134.607 34.3685 132.547 34.3685H126.689V16.3467H128.925V23.4739ZM129.008 25.6121V32.4H131.62C134.695 32.4 136.232 31.2988 136.23 29.0966C136.224 28.4462 136.053 27.8087 135.733 27.2468C135.421 26.6561 134.908 26.2033 134.292 25.9742C133.657 25.7309 132.54 25.6103 130.941 25.6121H129.008ZM147.417 34.3685H142.298V16.3467H147.34C149.261 16.3467 150.647 16.7973 151.497 17.6986C151.903 18.1152 152.225 18.6102 152.443 19.1549C152.661 19.6996 152.771 20.2832 152.767 20.872C152.767 22.699 151.978 23.9321 150.398 24.5827C152.684 25.4141 153.827 27.0149 153.827 29.3851C153.827 32.7055 151.691 34.3666 147.417 34.3685ZM144.551 18.3491V23.9492H146.031C146.914 23.9834 147.798 23.9284 148.67 23.7851C149.13 23.6403 149.536 23.3563 149.835 22.9705C150.218 22.4834 150.412 21.8695 150.382 21.2452C150.406 20.5731 150.205 19.9127 149.813 19.373C149.532 18.937 149.106 18.6196 148.615 18.4792C147.758 18.3669 146.894 18.3234 146.031 18.3491H144.551ZM144.551 26.0873V32.4H146.986C147.813 32.4347 148.641 32.3586 149.449 32.1738C149.966 32.0089 150.412 31.6675 150.713 31.2065C151.084 30.6515 151.27 29.989 151.243 29.3172C151.263 28.8812 151.192 28.446 151.035 28.0403C150.878 27.6346 150.638 27.2678 150.332 26.964C149.674 26.3611 148.812 26.0464 147.93 26.0873H144.551ZM167.902 10L179 34.3685H176.444L172.728 26.3588H162.419L158.725 34.3685H156.075L167.305 10H167.902ZM167.604 15.1136L163.512 23.983H171.679L167.604 15.1136Z" fill="#9B5625"/>
<path fill-rule="evenodd" clip-rule="evenodd" d="M71.8992 46.057V51.6503H71.374V46.057H68.999V45.4902H74.274V46.057H71.8992ZM75.9902 48.2517H77.6293V48.2444C77.9541 48.2488 78.2682 48.1206 78.5077 47.8859C78.6046 47.7928 78.6821 47.6788 78.7352 47.5516C78.7882 47.4243 78.8157 47.2864 78.8157 47.1471C78.8157 47.0077 78.7882 46.8699 78.7352 46.7426C78.6821 46.6153 78.6046 46.5014 78.5077 46.4083C78.2676 46.1745 77.9539 46.0465 77.6293 46.0497V46.0425H75.9902V48.2517ZM75.9902 48.8743V51.0835H77.6293V51.0762C77.954 51.0805 78.2681 50.9523 78.5077 50.7177C78.6046 50.6246 78.6821 50.5106 78.7352 50.3834C78.7882 50.2561 78.8157 50.1183 78.8157 49.9789C78.8157 49.8395 78.7882 49.7017 78.7352 49.5744C78.6821 49.4471 78.6046 49.3332 78.5077 49.2401C78.2676 49.0064 77.9539 48.8783 77.6293 48.8816V48.8743H75.9902ZM75.4672 45.4757H77.6497V45.4829C78.1085 45.4857 78.5487 45.6774 78.879 46.0183C79.0247 46.162 79.1414 46.336 79.222 46.5297C79.3026 46.7234 79.3453 46.9327 79.3476 47.1447V47.152C79.3453 47.3625 79.303 47.5702 79.2232 47.7626C79.1434 47.955 79.0278 48.128 78.8835 48.2711C78.7771 48.3854 78.6567 48.484 78.5258 48.5641C78.656 48.6417 78.7762 48.737 78.8835 48.8477C79.0279 48.9927 79.1434 49.1675 79.2231 49.3614C79.3029 49.5554 79.3452 49.7645 79.3476 49.9764V49.9813C79.3453 50.1933 79.3025 50.4025 79.222 50.5962C79.1414 50.7899 79.0247 50.964 78.879 51.1077C78.5493 51.4495 78.1087 51.6414 77.6497 51.643V51.6503H75.4672V45.4757ZM83.5065 44.9355C84.2515 44.9349 84.9736 45.2109 85.5497 45.7162C86.1258 46.2215 86.5203 46.925 86.6659 47.7067C86.8116 48.4884 86.6993 49.3 86.3483 50.0031C85.9973 50.7061 85.4292 51.2572 84.741 51.5623C84.0528 51.8674 83.2869 51.9076 82.5741 51.6762C81.8612 51.4448 81.2454 50.956 80.8317 50.2931C80.4179 49.6303 80.2318 48.8344 80.3051 48.0412C80.3784 47.2479 80.7065 46.5065 81.2336 45.9431C81.5281 45.618 81.8817 45.3609 82.2726 45.1876C82.6635 45.0143 83.0834 44.9285 83.5065 44.9355ZM83.5065 45.5337C82.8893 45.5321 82.2906 45.7596 81.8126 46.1775C81.3346 46.5954 81.0069 47.1777 80.8854 47.8252C80.7638 48.4728 80.856 49.1453 81.1461 49.7283C81.4362 50.3112 81.9064 50.7684 82.4763 51.022C83.0463 51.2755 83.6808 51.3096 84.2717 51.1184C84.8625 50.9273 85.3731 50.5228 85.7164 49.9739C86.0596 49.425 86.2143 48.7657 86.154 48.1084C86.0937 47.4511 85.8222 46.8366 85.3857 46.3695C85.1424 46.1004 84.8501 45.8874 84.527 45.7436C84.2038 45.5999 83.8565 45.5285 83.5065 45.5337ZM87.8126 45.4902H88.3423V46.355C88.443 46.21 88.5534 46.0732 88.6729 45.9456C89.123 45.4619 89.6973 45.1321 90.3228 44.9979C90.9482 44.8638 91.5969 44.9312 92.1865 45.1918C92.7762 45.4524 93.2803 45.8943 93.6349 46.4617C93.9896 47.0291 94.179 47.6963 94.179 48.3789C94.179 49.0615 93.9896 49.7287 93.6349 50.296C93.2803 50.8634 92.7762 51.3054 92.1865 51.5659C91.5969 51.8265 90.9482 51.894 90.3228 51.7598C89.6973 51.6256 89.123 51.2958 88.6729 50.8122C88.5529 50.6843 88.4423 50.5466 88.3423 50.4003V54H87.8126V45.4902ZM88.3423 47.7963V48.976C88.4408 49.5167 88.693 50.0117 89.0645 50.393C89.4365 50.7918 89.9107 51.0635 90.4271 51.1737C90.9435 51.284 91.4788 51.2279 91.9654 51.0126C92.452 50.7972 92.8679 50.4322 93.1605 49.9638C93.4531 49.4954 93.6094 48.9447 93.6094 48.3813C93.6094 47.8179 93.4531 47.2671 93.1605 46.7988C92.8679 46.3304 92.452 45.9654 91.9654 45.75C91.4788 45.5346 90.9435 45.4785 90.4271 45.5888C89.9107 45.6991 89.4365 45.9708 89.0645 46.3695C88.6936 46.7553 88.4416 47.2531 88.3423 47.7963ZM100.448 46.5536V45.4466H100.971V51.6503H100.448V48.1378C100.359 48.27 100.259 48.3932 100.149 48.5061C99.8595 48.8022 99.5167 49.0323 99.1415 49.1822C98.7663 49.3321 98.3665 49.3988 97.9665 49.3782C97.5713 49.4011 97.176 49.3354 96.806 49.1852C96.436 49.035 96.0994 48.8037 95.8179 48.5061C95.295 47.9344 95.0339 47.0333 95.0346 45.8026V45.4466H95.612L95.6052 45.8584C95.5514 46.6803 95.7882 47.4939 96.2685 48.1378C96.4789 48.3834 96.7367 48.5771 97.024 48.7055C97.3114 48.834 97.6214 48.894 97.9325 48.8816H98.032C98.3593 48.8857 98.684 48.8186 98.9864 48.6846C99.2888 48.5505 99.5626 48.3521 99.7912 48.1015C100.176 47.6861 100.409 47.137 100.448 46.5536ZM108.426 51.6503H107.896V50.393C107.795 50.5403 107.684 50.6803 107.566 50.8122C107.116 51.2942 106.542 51.6226 105.918 51.7558C105.294 51.889 104.646 51.821 104.058 51.5605C103.47 51.3001 102.967 50.8587 102.613 50.2924C102.259 49.726 102.07 49.0601 102.07 48.3789C102.07 47.6977 102.259 47.0317 102.613 46.4654C102.967 45.899 103.47 45.4577 104.058 45.1972C104.646 44.9367 105.294 44.8688 105.918 45.002C106.542 45.1352 107.116 45.4636 107.566 45.9456C107.684 46.0771 107.794 46.2163 107.896 46.3623V45.4902H108.426V51.6503ZM107.896 48.9396V47.8254C107.767 47.14 107.404 46.5304 106.879 46.1149C106.353 45.6995 105.702 45.5079 105.052 45.5773C104.402 45.6467 103.799 45.9723 103.36 46.4906C102.921 47.009 102.679 47.6833 102.679 48.3825C102.679 49.0817 102.921 49.756 103.36 50.2744C103.799 50.7927 104.402 51.1183 105.052 51.1877C105.702 51.2571 106.353 51.0655 106.879 50.6501C107.404 50.2346 107.767 49.625 107.896 48.9396ZM115.637 50.8049L117.785 45.4902H118.349V51.6503H117.824V46.8807L115.895 51.6503H115.37L113.441 46.8807V51.6503H112.915V45.4902H113.479L115.637 50.8049ZM125.729 51.6503H125.2V50.393C125.098 50.5403 124.988 50.6803 124.869 50.8122C124.419 51.2942 123.846 51.6226 123.221 51.7558C122.597 51.889 121.95 51.821 121.362 51.5605C120.773 51.3001 120.27 50.8587 119.917 50.2924C119.563 49.726 119.374 49.0601 119.374 48.3789C119.374 47.6977 119.563 47.0317 119.917 46.4654C120.27 45.899 120.773 45.4577 121.362 45.1972C121.95 44.9367 122.597 44.8688 123.221 45.002C123.846 45.1352 124.419 45.4636 124.869 45.9456C124.987 46.0771 125.098 46.2163 125.2 46.3623V45.4902H125.729V51.6503ZM125.2 48.9396V47.8254C125.071 47.14 124.708 46.5304 124.182 46.115C123.657 45.6996 123.006 45.508 122.355 45.5774C121.705 45.6469 121.102 45.9724 120.664 46.4907C120.225 47.0091 119.982 47.6833 119.982 48.3825C119.982 49.0817 120.225 49.7559 120.664 50.2743C121.102 50.7926 121.705 51.1181 122.355 51.1876C123.006 51.257 123.657 51.0654 124.182 50.65C124.708 50.2346 125.071 49.625 125.2 48.9396ZM126.918 45.4902H127.441V50.7056L131.122 45.4902H131.686V51.6503H131.163V46.3841L127.441 51.643V51.6503H126.918V45.4902ZM130.624 43C130.555 43.2229 130.437 43.4248 130.28 43.5885C130.152 43.726 130 43.8351 129.833 43.9095C129.666 43.984 129.487 44.0223 129.305 44.0223C129.124 44.0223 128.945 43.984 128.778 43.9095C128.61 43.8351 128.458 43.726 128.331 43.5885C128.173 43.4232 128.053 43.2221 127.978 43H128.448C128.495 43.0973 128.556 43.1857 128.63 43.2616C128.717 43.3604 128.823 43.4385 128.94 43.4911C129.058 43.5436 129.184 43.5694 129.311 43.5668C129.436 43.5686 129.561 43.5425 129.676 43.4899C129.792 43.4374 129.896 43.3596 129.981 43.2616C130.057 43.1871 130.12 43.0985 130.167 43H130.624ZM137.914 50.1678L138.471 50.3858C138.368 50.538 138.253 50.6807 138.127 50.8122C137.677 51.2942 137.104 51.6226 136.479 51.7558C135.855 51.889 135.208 51.821 134.619 51.5605C134.031 51.3001 133.528 50.8587 133.174 50.2924C132.821 49.726 132.632 49.0601 132.632 48.3789C132.632 47.6977 132.821 47.0317 133.174 46.4654C133.528 45.899 134.031 45.4577 134.619 45.1972C135.208 44.9367 135.855 44.8688 136.479 45.002C137.104 45.1352 137.677 45.4636 138.127 45.9456C138.252 46.0768 138.367 46.2186 138.471 46.3695L137.914 46.5899C137.858 46.5149 137.796 46.4397 137.728 46.3623C137.483 46.0947 137.19 45.8832 136.866 45.7408C136.542 45.5983 136.195 45.5279 135.845 45.5337C135.407 45.5335 134.976 45.6489 134.59 45.8695C134.204 46.0902 133.875 46.4094 133.632 46.7988C133.389 47.1882 133.24 47.6357 133.197 48.1018C133.155 48.5678 133.22 49.0378 133.388 49.4702C133.556 49.9027 133.821 50.2841 134.16 50.5806C134.498 50.8772 134.9 51.0797 135.329 51.1703C135.759 51.2608 136.202 51.2366 136.621 51.0998C137.039 50.9629 137.42 50.7177 137.728 50.3858C137.795 50.3173 137.857 50.2446 137.914 50.1678ZM142.247 46.057V51.6503H141.722V46.057H139.347V45.4902H144.622V46.057H142.247ZM146.173 47.4911H151.229C151.108 47.0671 150.891 46.6817 150.597 46.3695C150.35 46.1046 150.056 45.8944 149.733 45.751C149.41 45.6076 149.063 45.5337 148.713 45.5337C148.363 45.5337 148.017 45.6076 147.694 45.751C147.37 45.8944 147.077 46.1046 146.83 46.3695C146.534 46.6848 146.309 47.0685 146.173 47.4911ZM146.074 48.0677C146.059 48.1727 146.053 48.2788 146.053 48.3849C146.054 48.9477 146.211 49.4975 146.504 49.9647C146.798 50.432 147.214 50.7957 147.7 51.0099C148.186 51.2241 148.721 51.2791 149.237 51.168C149.753 51.0569 150.226 50.7847 150.597 50.3858C150.685 50.2914 150.769 50.192 150.85 50.0878L151.414 50.3011C151.292 50.4874 151.152 50.6588 150.995 50.8122C150.545 51.2942 149.972 51.6226 149.348 51.7558C148.723 51.889 148.076 51.821 147.488 51.5605C146.899 51.3001 146.397 50.8587 146.043 50.2924C145.689 49.726 145.5 49.0601 145.5 48.3789C145.5 47.6977 145.689 47.0317 146.043 46.4654C146.397 45.899 146.899 45.4577 147.488 45.1972C148.076 44.9367 148.723 44.8688 149.348 45.002C149.972 45.1352 150.545 45.4636 150.995 45.9456C151.261 46.2205 151.471 46.5505 151.614 46.9153C151.756 47.2802 151.828 47.6723 151.824 48.0677H146.074ZM152.675 45.4902H153.205V46.355C153.306 46.21 153.416 46.0732 153.535 45.9456C153.986 45.4619 154.56 45.1321 155.185 44.9979C155.811 44.8638 156.459 44.9312 157.049 45.1918C157.639 45.4524 158.143 45.8943 158.498 46.4617C158.852 47.0291 159.042 47.6963 159.042 48.3789C159.042 49.0615 158.852 49.7287 158.498 50.296C158.143 50.8634 157.639 51.3054 157.049 51.5659C156.459 51.8265 155.811 51.894 155.185 51.7598C154.56 51.6256 153.986 51.2958 153.535 50.8122C153.415 50.6843 153.305 50.5466 153.205 50.4003V54H152.675V45.4902ZM153.205 47.7963V48.976C153.303 49.5167 153.556 50.0116 153.927 50.393C154.299 50.7918 154.773 51.0635 155.29 51.1737C155.806 51.284 156.341 51.2279 156.828 51.0126C157.314 50.7972 157.73 50.4322 158.023 49.9638C158.316 49.4954 158.472 48.9447 158.472 48.3813C158.472 47.8179 158.316 47.2671 158.023 46.7988C157.73 46.3304 157.314 45.9654 156.828 45.75C156.341 45.5346 155.806 45.4785 155.29 45.5888C154.773 45.6991 154.299 45.9708 153.927 46.3695C153.556 46.7553 153.304 47.2531 153.205 47.7963ZM164.846 51.6503H164.321V48.5981H160.481V51.6503H159.956V45.4902H160.481V48.0312H164.321V45.4902H164.846V51.6503V51.6503ZM169.476 46.057H167.69V46.0642C167.348 46.0695 167.017 46.1946 166.748 46.4204C166.626 46.5259 166.529 46.6602 166.463 46.8128C166.398 46.9654 166.367 47.132 166.372 47.2997C166.366 47.4676 166.396 47.6347 166.462 47.7874C166.527 47.9402 166.625 48.0743 166.748 48.179C167.015 48.409 167.347 48.5369 167.69 48.5423V48.5496H169.476V46.057ZM169.999 45.4902V51.6503H169.476V49.1165H168.063L167.937 49.4072L167.597 50.1824L166.961 51.6503H166.377L167.493 49.0946C167.079 49.0536 166.688 48.872 166.377 48.5764C166.204 48.4211 166.067 48.2265 165.974 48.0068C165.881 47.7872 165.835 47.548 165.84 47.307V47.2997C165.835 47.0587 165.881 46.8196 165.974 46.5999C166.067 46.3802 166.204 46.1856 166.377 46.0304C166.737 45.6965 167.195 45.508 167.672 45.4975V45.4902H169.999Z" fill="#5F2B00"/>
<path fill-rule="evenodd" clip-rule="evenodd" d="M59.999 48.9538C61.8378 50.3292 63.5045 50.3485 64.999 49.0114C63.3222 47.6823 61.6556 47.6631 59.999 48.9538Z" fill="#5F2B00"/>
<path fill-rule="evenodd" clip-rule="evenodd" d="M173.999 48.4306C176.206 50.4939 178.206 50.5227 179.999 48.5172C177.987 46.5236 175.987 46.4947 173.999 48.4306Z" fill="#5F2B00"/>
<defs>
<linearGradient id="paint0_linear" x1="23.7356" y1="55.9375" x2="24.6005" y2="1.19582" gradientUnits="userSpaceOnUse">
<stop stop-color="#5F2B00"/>
<stop offset="1" stop-color="#9B5625"/>
</linearGradient>
</defs>
</svg>
